<svg xmlns="http://www.w3.org/2000/svg" viewBox="0 0 256 256">
  <defs>
    <linearGradient id="bg" x1="0%" y1="0%" x2="100%" y2="100%">
      <stop offset="0%" stop-color="#1f3a5f"/>
      <stop offset="100%" stop-color="#c25d2e"/>
    </linearGradient>
  </defs>
  <rect x="20" y="20" width="216" height="216" rx="52" fill="url(#bg)"/>
  <path d="M66 86h124c11 0 20 9 20 20v44c0 11-9 20-20 20H66c-11 0-20-9-20-20v-44c0-11 9-20 20-20Z" fill="#fdf6ec"/>
  <path d="M52 96l76 53 76-53" fill="none" stroke="#1f3a5f" stroke-linecap="round" stroke-linejoin="round" stroke-width="14"/>
  <path d="M128 52c-20 0-36 16-36 36v10h18V88c0-10 8-18 18-18s18 8 18 18v10h18V88c0-20-16-36-36-36Z" fill="#f3b562"/>
  <circle cx="128" cy="126" r="12" fill="#c25d2e"/>
  <path d="M128 138v20" stroke="#c25d2e" stroke-linecap="round" stroke-width="10"/>
</svg>
